<?xml version="1.0" encoding="utf-8"?>
<!-- Generator: Adobe Illustrator 19.0.0, SVG Export Plug-In . SVG Version: 6.00 Build 0)  -->
<svg version="1.1" id="Layer_1" xmlns="http://www.w3.org/2000/svg" xmlns:xlink="http://www.w3.org/1999/xlink" x="0px" y="0px"
	 viewBox="0 0 500 500" style="enable-background:new 0 0 500 500;" xml:space="preserve">
<style type="text/css">
	.st0{fill:#231F20;}
</style>
<g id="layer1" transform="translate(-365.24977,-524.73747)">
	<path id="path38499" class="st0" d="M462.9,779.9h13.7l4,2.6h-18.3l-8.2,25.4c-9.1-3.5-17.5-11.7-21-20.9c-3.8-8.9-3.8-20.1,0.1-29
		c3.6-9.2,12.3-17.5,21.5-20.9c7.2-3,16.9-3.3,24.6-1c8.8,2.5,17.1,8.8,22,17.1c5.4,9,6.9,20.5,3.6,30.9
		c-2.1,6.9-6.4,13.4-12.3,18.1l-10.1-16.9l14.1,7.9c0.1,0,0.1-0.1,0.1-0.2l-18.5-15.9l23.9,3.6c0.1,0,0.1,0,0.1-0.1l-0.2-0.1
		l-22.5-7.9l23.4-5.6c0.1,0,0.1-0.1,0-0.1l-24,1.6l18.8-14.2c0-0.1-0.1-0.1-0.2,0L476.5,765l11.6-20.5c0,0,0-0.1-0.1-0.1l-15.2,17.9
		l2.9-23.5c0,0-0.1-0.1-0.2,0l-7,22.8l-6.1-23.5c0,0-0.1-0.1-0.2,0l1.7,24.3l-14.5-18.8c0,0-0.1,0-0.1,0l10.9,20.8l-20.7-11.3
		c0,0-0.1,0-0.1,0.1l18.4,15.1l-23.5-2.5c-0.1,0-0.1,0.1,0,0.2l22.7,6.7l-22.6,6.6c0,0,0,0.1,0,0.2l23.3-2.7l-18.3,15.6
		c0,0-0.1,0.1,0,0.1l0.2-0.1l14.7-7.7l3.4-5.5h3.9l-2.7-1.9l9.1-14.6L462.9,779.9L462.9,779.9"/>
	<path id="path38503" class="st0" d="M530.6,799.1h-18.3l14.7-52.3h37.5l-3.6,12.4h-19.2l-2.5,8.9h19.2l-3.2,11.4H536L530.6,799.1z"
		/>
	<path id="path38507" class="st0" d="M572.9,799.1h-18.1l10.7-38.2h18.1L572.9,799.1z M584.6,757.2h-18.1l2.9-10.5h18.1L584.6,757.2
		z"/>
	<path id="path38511" class="st0" d="M619.9,799.1h-17.7l1.3-4.3c-3.6,3-7.2,5.2-13,5.2c-5.9,0-9.6-2.8-9.6-8.8
		c0-6.6,2.6-16.4,6.5-23.3c2.8-5.1,7.9-7.8,13.8-7.8c5.1,0,8.9,2.2,10.4,5l5.1-18.4h18.1L619.9,799.1L619.9,799.1z M606.3,772.3
		c-1.6,0-3.2,0.5-4.1,2.7c-1.3,3.2-2.5,6.4-2.5,9.5c0,1.5,1.1,2.7,2.8,2.7c1.4,0,2.3-0.4,3.1-0.9l3.6-12.6
		C608.5,772.9,607.4,772.3,606.3,772.3"/>
	<path id="path38515" class="st0" d="M671,782.4h-25c-0.5,2-1,3.4-1,5c0,0.8,0.1,2.7,2.7,2.7c2.5,0,3.6-1,4.7-4.7h17.7
		c-2.2,10.9-15.1,14.6-23.1,14.6c-10.7,0-19.1-1.5-19.1-11.9c0-5.7,2.9-15.1,6.7-20.1c4.6-6,12.5-8.2,19.8-8.2
		c11.2,0,18.5,2.3,18.5,11.8C672.9,774.1,671.9,779.3,671,782.4 M652.9,769.6c-2.2,0-3.8,1.5-4.8,5.4h7.4c0.2-0.8,0.5-2,0.5-2.7
		C656,770.2,654.8,769.6,652.9,769.6"/>
	<path id="path38519" class="st0" d="M689.2,799.1h-18.1l14.7-52.3h18.1L689.2,799.1z"/>
	<path id="path38523" class="st0" d="M713.1,799.1H695l10.7-38.2h18.1L713.1,799.1z M724.8,757.2h-18.1l2.9-10.5h18.1L724.8,757.2z"
		/>
	<path id="path38527" class="st0" d="M757.3,760.9l1.6,8.6H745L741,784c-0.3,1.1-0.6,2.5-0.6,3.4c0,1.7,0.7,2.2,3.2,2.2h3.9
		l-2.7,9.4h-16.1c-5.3,0-7.4-2.6-7.4-6.5c0-1.6,0.2-3.4,0.8-5.3l9.8-34.9h18.1l-2.4,8.5H757.3"/>
	<path id="path38531" class="st0" d="M511.9,805l4.5,0l-2.9,9.4l-4.5,0L511.9,805L511.9,805z"/>
	<path id="path38535" class="st0" d="M527.6,805l6.6,0l1.7,6.3h0l1.9-6.3l3.9,0l-2.9,9.4l-6.3,0l-1.8-6.7h0l-2,6.7l-3.9,0L527.6,805
		L527.6,805z"/>
	<path id="path38539" class="st0" d="M550.3,805l5,0l0.9,5.9l4.5-5.9l4.6,0l-7.6,9.4l-5.5,0L550.3,805L550.3,805z"/>
	<path id="path38543" class="st0" d="M574,805l10.3,0l-0.6,1.9l-5.9,0l-0.6,1.9l5.5,0l-0.6,1.8l-5.5,0l-0.6,1.9l6,0l-0.6,1.9
		l-10.3,0L574,805z"/>
	<path id="path38547" class="st0" d="M618,807.3l-3.5,0l0.7-2.3l11.5,0l-0.7,2.3l-3.5,0l-2.2,7.1l-4.5,0L618,807.3L618,807.3z"/>
	<path id="path38551" class="st0" d="M636.1,805l6.8,0l0.3,6.3h0l4.1-6.3l6.9,0l-2.9,9.4l-4.2,0l2.1-7.1h0l-5.1,7.1l-4.4,0l-0.6-7.1
		h0l-2.1,7.1l-3.8,0L636.1,805L636.1,805z"/>
	<path id="path38555" class="st0" d="M682.9,805l6.6,0l1.7,6.3h0l1.9-6.3l3.9,0l-2.9,9.4l-6.4,0l-1.8-6.7h0l-2,6.7l-3.9,0L682.9,805
		z"/>
	<path id="path38559" class="st0" d="M707.9,807.3l-3.5,0l0.7-2.3l11.5,0l-0.7,2.3l-3.5,0l-2.2,7.1l-4.5,0L707.9,807.3L707.9,807.3z
		"/>
	<path id="path38565" class="st0" d="M598.1,807.9c-0.1-0.1-0.1-0.3-0.1-0.4c0.1-0.5,0.7-0.8,1.7-0.8c0.6,0,1.4,0.1,1.7,0.3
		c0.3,0.2,0.3,0.5,0.3,0.8h4c0.5-1.7-0.6-2.8-5.1-2.8c-4.3,0-6.7,0.9-7.3,3c-0.2,0.5-0.2,1.2,0.3,1.6c1.1,1.1,6.1,1.5,6.5,2.1
		c0.1,0.1,0.1,0.3,0.1,0.4c-0.2,0.8-1.3,0.9-2.2,0.9c-0.6,0-1.4-0.1-1.6-0.4c-0.2-0.2-0.2-0.6-0.1-0.9l-4.2,0c-0.4,1.5-0.6,3,5.2,3
		c4.9,0,7.1-1.2,7.7-3.1c0.3-0.9,0-1.4-0.3-1.7C603.4,808.8,598.6,808.4,598.1,807.9"/>
	<path id="path38569" class="st0" d="M663.4,805l10.3,0l-0.6,1.9l-5.9,0l-0.6,1.9l5.5,0l-0.6,1.8l-5.5,0l-0.6,1.9l6,0l-0.6,1.9
		l-10.3,0L663.4,805L663.4,805z"/>
	<path id="path38573" class="st0" d="M781.7,760.9l-9.8,21.2l0.3-21.2h-18.3l3.5,38.2c-0.4,2.2-1.2,3.5-2.6,4.1
		c-1.5,0.7-5,0.6-6.2,0.5l-0.2,0l-2.9,10.4l12.4,0c7.3,0,10.9-3.7,16.1-11.8l26.4-41.5L781.7,760.9"/>
	<path id="path38577" class="st0" d="M728.3,807.8c-0.1-0.1-0.1-0.3-0.1-0.4c0.2-0.5,0.7-0.8,1.7-0.8c0.6,0,1.4,0.1,1.7,0.3
		c0.3,0.2,0.3,0.5,0.3,0.8h4c0.5-1.7-0.6-2.8-5.1-2.8c-4.3,0-6.7,0.9-7.3,3c-0.2,0.5-0.2,1.2,0.3,1.6c1.1,1.1,6.1,1.5,6.5,2.1
		c0.1,0.1,0.1,0.3,0.1,0.4c-0.2,0.8-1.3,0.9-2.2,0.9c-0.6,0-1.4-0.1-1.6-0.4c-0.2-0.2-0.2-0.6-0.1-0.9l-4.2,0c-0.4,1.5-0.6,3,5.2,3
		c4.9,0,7.1-1.2,7.7-3.1c0.3-0.9,0-1.4-0.3-1.7C733.7,808.8,728.8,808.4,728.3,807.8"/>
	<path id="path38645" class="st0" d="M784.6,798.4c-1.8,0-3.3-1.5-3.3-3.3c0-1.8,1.5-3.3,3.3-3.3c1.8,0,3.3,1.5,3.3,3.3
		C787.9,796.9,786.4,798.4,784.6,798.4 M784.6,791.2c-2.2,0-4,1.8-4,4c0,2.2,1.8,4,4,4c2.2,0,4-1.8,4-4
		C788.6,792.9,786.8,791.2,784.6,791.2"/>
	<path id="path38649" class="st0" d="M783.9,794.9v-1.2h0.5c0.5,0,1,0,1,0.6c0,0.6-0.5,0.6-1,0.6L783.9,794.9L783.9,794.9z
		 M786.2,794.3c0-0.8-0.5-1.2-1.5-1.2h-1.5v4.1h0.7v-1.7h0.5l1,1.7h0.8l-1.1-1.7C785.8,795.4,786.2,795,786.2,794.3"/>
	<path id="path38653" class="st0" d="M781.7,761l-9.8,21.1l0.3-21.1H754l3.5,38.1c-0.4,2.2-1.2,3.5-2.6,4.1c-1.5,0.7-5,0.6-6.2,0.5
		l-0.2,0l-2.9,10.4l12.3,0c7.3,0,10.8-3.7,16-11.8l26.3-41.3L781.7,761L781.7,761z"/>
</g>
</svg>
